<?xml version="1.0" encoding="utf-8"?>
<!-- Generator: Adobe Illustrator 27.5.0, SVG Export Plug-In . SVG Version: 6.00 Build 0)  -->
<svg version="1.1" xmlns="http://www.w3.org/2000/svg" xmlns:xlink="http://www.w3.org/1999/xlink" x="0px" y="0px"
	 viewBox="0 0 500 500" style="enable-background:new 0 0 500 500;" xml:space="preserve">
<g id="BACKGROUND">
	<rect style="fill:#F2E7F9;" width="500" height="500"/>
	<linearGradient id="SVGID_1_" gradientUnits="userSpaceOnUse" x1="253.802" y1="381.5017" x2="253.802" y2="121.2922">
		<stop  offset="0" style="stop-color:#F4E5F5"/>
		<stop  offset="0.5699" style="stop-color:#E7C5EA"/>
		<stop  offset="0.6991" style="stop-color:#E2C0E8"/>
		<stop  offset="0.8584" style="stop-color:#D3B3E4"/>
		<stop  offset="1" style="stop-color:#BFA2DE"/>
	</linearGradient>
	<path style="fill:url(#SVGID_1_);" d="M467.381,291.318c0,100.208-95.623,86.528-213.579,86.528
		c-117.957,0-213.579,13.68-213.579-86.528c0-100.209,95.622-181.444,213.579-181.444
		C371.758,109.875,467.381,191.11,467.381,291.318z"/>
</g>
<g id="OBJECTS">
	<path style="fill:#F1E1EF;" d="M194.926,414.033c0,1.424-16.829,2.577-37.588,2.577s-37.588-1.153-37.588-2.577
		c0-1.423,16.829-2.578,37.588-2.578S194.926,412.61,194.926,414.033z"/>
	<path style="fill:#F1E1EF;" d="M368.057,414.033c0,1.424-16.828,2.577-37.588,2.577c-20.758,0-37.588-1.153-37.588-2.577
		c0-1.423,16.83-2.578,37.588-2.578C351.228,411.455,368.057,412.61,368.057,414.033z"/>
	<g>
		<g transform="matrix( 1, 0, 0, 1.2949676513671875, 0,-187.3) ">
			<g>
				<g id="Layer0_1_FILL">
					<path style="fill:#FFFFFF;" d="M152.985,266.475l-75.858,5.64l9.044,72.532l75.859-5.642L152.985,266.475z"/>
				</g>
			</g>
		</g>
		<g transform="matrix( 1, 0, 0, 1, 0,3) ">
			<g>
				<g id="Layer0_2_FILL">
					<path style="fill:#E5E5E5;" d="M89.363,214.968l14.474-1.394l-0.152-1.585l-14.475,1.393L89.363,214.968 M114.727,204.848
						l-0.152-1.586l-26.097,2.514l0.153,1.585L114.727,204.848 M123.706,210.062l-7.343,0.707l0.152,1.584l7.344-0.706
						L123.706,210.062 M128.355,209.614l0.152,1.585l17.539-1.689l-0.153-1.585L128.355,209.614 M133.059,203.083l-0.154-1.585
						l-13.312,1.282l0.152,1.585L133.059,203.083 M139.169,234.432l-0.153-1.584l-28.737,2.767l0.152,1.585L139.169,234.432
						 M141.341,232.624l0.152,1.584l9.191-0.885l-0.152-1.585L141.341,232.624 M103.722,237.844l-0.152-1.584l-9.721,0.936
						l0.153,1.585L103.722,237.844 M93.203,230.486l0.152,1.584l25.78-2.481l-0.153-1.585L93.203,230.486 M150.039,226.614
						l-0.153-1.585l-26.572,2.559l0.153,1.585L150.039,226.614 M149.367,219.64l-0.153-1.585l-39.62,3.815l0.153,1.585
						L149.367,219.64 M88.605,182.731l0.152,1.584l56.683-5.457l-0.152-1.585L88.605,182.731 M141.847,185.282l-4.542,0.438
						l0.152,1.585l4.544-0.438L141.847,185.282 M133.29,186.106l-35.87,3.454l0.152,1.584l35.87-3.453L133.29,186.106
						 M102.347,173.73l0.153,1.585l42.208-4.063l-0.152-1.585L102.347,173.73z"/>
				</g>
			</g>
		</g>
	</g>
	<g>
		<g transform="matrix( 1, 0, 0, 1, -24.9,9.65) ">
			<g>
				<g id="Layer0_3_MEMBER_0_FILL">
					<path style="fill:#9689D6;" d="M479.191,185.089H372.926c-7.188,0-10.783,3.594-10.783,10.783v14.395
						c0,7.188,3.596,10.783,10.783,10.783h106.265c7.189,0,10.783-3.595,10.783-10.783v-14.395
						C489.974,188.683,486.38,185.089,479.191,185.089z"/>
				</g>
			</g>
		</g>
		<g transform="matrix( 1, 0, 0, 1, 0,-4.35) ">
			<g>
				<g id="Layer0_3_MEMBER_1_FILL">
					<path style="fill:#FFFFFF;" d="M454.777,215.155l-1.133-2.103l-4.636,2.696l0.054-5.176h-2.372l0.053,5.176l-4.636-2.696
						l-1.133,2.103l4.583,2.534l-4.583,2.587l1.133,2.103l4.636-2.696l-0.053,5.175h2.372l-0.054-5.175l4.636,2.696l1.133-2.103
						l-4.529-2.587L454.777,215.155 M430.354,215.748l0.054-5.176h-2.372l0.054,5.176l-4.637-2.696l-1.133,2.103l4.583,2.534
						l-4.583,2.587l1.133,2.103l4.637-2.696l-0.054,5.175h2.372l-0.054-5.175l4.637,2.696l1.132-2.103l-4.529-2.587l4.529-2.534
						l-1.132-2.103L430.354,215.748 M367.382,213.053l-1.185,2.103l4.582,2.534l-4.582,2.587l1.185,2.103l4.637-2.696l-0.054,5.175
						h2.318l-0.055-5.175l4.638,2.696l1.186-2.103l-4.528-2.587l4.528-2.534l-1.186-2.103l-4.638,2.696l0.055-5.176h-2.318
						l0.054,5.176L367.382,213.053 M361.344,215.155l-1.187-2.103l-4.637,2.696l0.055-5.176h-2.319l0.055,5.176l-4.637-2.696
						l-1.186,2.103l4.583,2.534l-4.583,2.587l1.186,2.103l4.637-2.696l-0.055,5.175h2.319l-0.055-5.175l4.637,2.696l1.187-2.103
						l-4.529-2.587L361.344,215.155 M386.09,213.053l-1.186,2.103l4.584,2.534l-4.584,2.587l1.186,2.103l4.637-2.696l-0.055,5.175
						h2.319v-5.175l4.582,2.696l1.187-2.103l-4.528-2.587l4.528-2.534l-1.187-2.103l-4.582,2.696v-5.176h-2.319l0.055,5.176
						L386.09,213.053 M411.699,215.748v-5.176h-2.317l0.054,5.176l-4.638-2.696l-1.186,2.103l4.583,2.534l-4.583,2.587l1.186,2.103
						l4.638-2.696l-0.054,5.175h2.317v-5.175l4.583,2.696l1.187-2.103l-4.529-2.587l4.529-2.534l-1.187-2.103L411.699,215.748z"/>
				</g>
			</g>
		</g>
	</g>
	<g>
		<g transform="matrix( 1.0657806396484375, 0.285552978515625, -0.285552978515625, 1.0657806396484375, 28.75,-139.5) ">
			<g>
				<g id="Layer0_4_FILL">
					<path style="fill:#FFFFFF;" d="M470.656,333.397l-7.77-71.989l-93.698,10.111l7.77,71.99L470.656,333.397 M458.105,267.347
						l6.613,61.268l-82.978,8.955l-6.612-61.267L458.105,267.347z"/>
				</g>
			</g>
		</g>
		<g transform="matrix( 1.065643310546875, 0.285491943359375, -0.285491943359375, 1.065643310546875, 29,-139.55) ">
			<g>
				<g id="Layer0_4_MEMBER_0_FILL">
					<path style="fill:#6ADE99;" d="M379.733,318.993l0.919,8.522l82.977-8.954l-0.66-6.111c-1.087-0.075-2.201-0.173-3.338-0.291
						c-2.872-0.293-5.673-0.298-8.409-0.015c-0.054,0.007-0.109,0.012-0.16,0.018c-3.073,0.331-6.687,1.173-10.844,2.526
						c-4.123,1.314-6.989,2.057-8.598,2.23c-1.929,0.207-4.419-0.067-7.464-0.822c-3.014-0.795-5.361-1.103-7.041-0.921
						c-0.394,0.041-1.674,0.397-3.844,1.066c-2.168,0.667-3.773,1.058-4.808,1.168c-2.501,0.272-5.143-0.583-7.923-2.559
						c-2.78-1.979-5.277-2.848-7.493-2.608c-2.788,0.301-5.384,1.196-7.789,2.685C385.113,315.037,383.27,316.392,379.733,318.993z"
						/>
					<path style="fill:#99E5CD;" d="M406.845,304.409c-5.18-5.442-8.93-8.039-11.252-7.788c-1.966,0.212-4.416,1.289-7.35,3.234
						c-2.936,1.943-4.512,2.926-4.726,2.95c-0.966,0.104-1.985,0.035-3.061-0.212c-0.57-0.109-1.425-0.343-2.57-0.699l1.847,17.1
						c3.537-2.602,5.38-3.957,5.526-4.067c2.405-1.489,5.002-2.384,7.789-2.685c2.216-0.24,4.713,0.63,7.493,2.608
						c2.78,1.976,5.422,2.831,7.923,2.559c1.035-0.11,2.64-0.501,4.808-1.168c2.17-0.668,3.45-1.024,3.844-1.066
						c1.68-0.182,4.026,0.125,7.041,0.921c3.045,0.755,5.534,1.029,7.464,0.822c1.609-0.173,4.475-0.917,8.598-2.23
						c4.157-1.353,7.771-2.195,10.844-2.526c0.051-0.006,0.106-0.011,0.16-0.018c-0.628-0.07-1.304-0.141-2.028-0.214
						c-2.449-0.243-4.238-0.574-5.367-0.994c-0.377-0.14-1.884-1.044-4.523-2.711c-1.743-1.077-3.634-1.505-5.67-1.285
						c-1.68,0.181-4.298,1.059-7.851,2.635c-3.517,1.573-5.919,2.429-7.205,2.567C415.899,312.433,411.988,309.855,406.845,304.409z
						"/>
					<path style="fill:#D1EFFF;" d="M390.463,284.756c-3.789,0.408-7.063,1.395-9.822,2.959c-1.696,0.958-3.011,2.003-3.945,3.137
						l1.19,11.042c1.145,0.356,2,0.59,2.57,0.699c1.076,0.247,2.095,0.316,3.061,0.212c0.214-0.023,1.79-1.006,4.726-2.95
						c2.934-1.945,5.385-3.021,7.35-3.234c2.323-0.251,6.073,2.346,11.252,7.788c5.143,5.446,9.054,8.024,11.735,7.734
						c1.286-0.138,3.688-0.994,7.205-2.567c3.553-1.576,6.171-2.454,7.851-2.635c2.036-0.22,3.927,0.208,5.67,1.285
						c2.638,1.667,4.146,2.57,4.523,2.711c1.129,0.42,2.918,0.751,5.367,0.994c0.724,0.073,1.4,0.144,2.028,0.214
						c2.736-0.283,5.537-0.277,8.409,0.015c1.137,0.118,2.251,0.215,3.338,0.291l-3.285-30.446
						c-0.244,0.162-0.496,0.335-0.757,0.514c-2.328,1.553-4.366,2.424-6.118,2.612c-2.394,0.259-4.969-0.151-7.725-1.227
						c-2.722-1.116-5.049-1.57-6.978-1.361c-5.075,0.547-8.896,2.658-11.463,6.333c-1.659,2.384-2.552,3.656-2.68,3.813
						c-1.105,1.168-2.423,1.835-3.96,2.001c-2.538,0.275-4.988-0.15-7.349-1.267c-1.178-0.524-3.215-1.806-6.108-3.843
						C401.113,285.794,395.751,284.185,390.463,284.756z"/>
					<path style="fill:#A4E1FF;" d="M380.641,287.714c2.759-1.563,6.033-2.55,9.822-2.959c5.288-0.571,10.65,1.039,16.084,4.826
						c2.894,2.037,4.931,3.319,6.108,3.843c2.361,1.117,4.811,1.542,7.349,1.267c1.537-0.166,2.855-0.833,3.96-2.001
						c0.128-0.157,1.021-1.429,2.68-3.813c2.567-3.675,6.388-5.787,11.463-6.333c1.929-0.209,4.256,0.244,6.978,1.361
						c2.756,1.076,5.331,1.486,7.725,1.227c1.752-0.188,3.79-1.06,6.118-2.612c0.261-0.18,0.513-0.353,0.757-0.514l-1.585-14.689
						l-82.978,8.955l1.574,14.581C377.63,289.718,378.945,288.672,380.641,287.714z"/>
					<path style="fill:#49C5EE;" d="M380.653,327.515l1.082,10.024l82.978-8.955l-1.082-10.023L380.653,327.515z"/>
				</g>
			</g>
		</g>
	</g>
	<g>
		<g transform="matrix( 1.116424560546875, 0, 0, 1.116424560546875, -18.35,-40.7) ">
			<g>
				<g id="Layer0_5_MEMBER_0_FILL">
					<path style="fill:#A79CB9;" d="M112.125,282.828c-2.621-2.12-5.222-2.12-7.805,0l-40.41,33.705v5.837l40.41,33.763
						c2.583,2.12,5.184,2.12,7.805,0l40.294-33.763v-5.837L112.125,282.828z"/>
				</g>
			</g>
		</g>
		<g transform="matrix( 1.116424560546875, 0, 0, 1.116424560546875, 21.05,-20.4) ">
			<g>
				<g id="Layer0_5_MEMBER_1_FILL">
					<path style="fill:#FFFFFF;" d="M109.891,273.182H35.546v71.107h74.345V273.182z"/>
				</g>
			</g>
		</g>
		<g transform="matrix( 1.046783447265625, 0, 0, 1.116424560546875, -7.95,-43.85) ">
			<g>
				<g id="Layer0_5_MEMBER_2_FILL">
					<path style="fill:#E5E5E5;" d="M75.439,345.171v1.561h15.147v-1.561H75.439 M134.696,346.732v-1.561h-30.872v1.561H134.696
						 M121.861,339.275v-1.561H75.439v1.561H121.861 M106.31,331.816v-1.561H93.765v1.561H106.31 M134.696,331.816v-1.561H110.01
						v1.561H134.696 M89.66,331.816v-1.561H75.439v1.561H89.66 M121.399,324.36v-1.562H75.439v1.562H121.399 M134.696,324.36v-1.562
						h-9.134v1.562H134.696 M134.696,309.443v-1.561h-44.11v1.561H134.696 M134.696,316.902v-1.562H75.439v1.562H134.696z"/>
				</g>
			</g>
		</g>
		<g transform="matrix( 1, 0, 0, 1, 0,0) ">
			<g>
				<g id="Layer0_5_MEMBER_3_FILL">
					
						<linearGradient id="SVGID_00000173846518003289202450000012542468334212654740_" gradientUnits="userSpaceOnUse" x1="102.259" y1="403.1232" x2="102.259" y2="301.1756">
						<stop  offset="0.0108" style="stop-color:#A9C5FF"/>
						<stop  offset="1" style="stop-color:#AEF5FF"/>
					</linearGradient>
					<path style="fill:url(#SVGID_00000173846518003289202450000012542468334212654740_);" d="M52.859,374.681
						c0,2.582,1.291,3.873,3.874,3.873h91.052c2.582,0,3.873-1.291,3.873-3.873v-59.025l-44.977,34.688
						c-2.929,2.196-5.839,2.196-8.73,0l-45.092-34.688V374.681z"/>
				</g>
			</g>
		</g>
	</g>
	<g transform="matrix( 1.01171875, 0, 0, 1, -13.15,60.25) ">
		<g>
			<g id="Layer0_6_FILL">
				<path style="fill:#DBD8DE;" d="M381.907,324.195l-12.347-10.999H149.751l-12.4,10.999H381.907z"/>
				<path style="fill:#B8B4C8;" d="M382.878,326.514c0-0.898-0.323-1.671-0.971-2.318H137.351c-0.611,0.647-0.917,1.42-0.917,2.318
					v1.348c0,0.898,0.306,1.653,0.917,2.265c0.647,0.647,1.419,0.971,2.318,0.971h239.974c0.898,0,1.653-0.323,2.263-0.971
					c0.648-0.611,0.971-1.366,0.971-2.265V326.514z"/>
			</g>
		</g>
	</g>
	<g transform="matrix( 1, 0, 0, 1, -10.1,60.25) ">
		<g>
			<g id="Layer0_7_FILL">
				
					<linearGradient id="SVGID_00000057132326942665159780000007928106176507465883_" gradientUnits="userSpaceOnUse" x1="259.6237" y1="254.8606" x2="259.6237" y2="136.4786">
					<stop  offset="0.1344" style="stop-color:#4F4F4F"/>
					<stop  offset="1" style="stop-color:#775B5B"/>
				</linearGradient>
				<path style="fill:url(#SVGID_00000057132326942665159780000007928106176507465883_);" d="M373.653,169.515
					c0-3.595-1.797-5.392-5.392-5.392H150.986c-3.594,0-5.392,1.797-5.392,5.392v139.638c0,3.595,1.797,5.392,5.392,5.392h217.275
					c3.595,0,5.392-1.797,5.392-5.392V169.515 M368.261,169.515v139.638H150.986V169.515H368.261z"/>
				
					<linearGradient id="SVGID_00000049192559126638513450000001671530689546685621_" gradientUnits="userSpaceOnUse" x1="234.3853" y1="324.3601" x2="297.6798" y2="111.1242">
					<stop  offset="0" style="stop-color:#5789AD"/>
					<stop  offset="1" style="stop-color:#57CCE5"/>
				</linearGradient>
				<path style="fill:url(#SVGID_00000049192559126638513450000001671530689546685621_);" d="M368.261,309.152V169.515H150.986
					v139.638H368.261z"/>
			</g>
		</g>
	</g>
	<g>
		<g transform="matrix( 1, 0, 0, 1, 59.9,80.95) ">
			<g>
				<g id="Layer0_8_MEMBER_8_FILL">
					
						<linearGradient id="SVGID_00000078734393886868096820000015813833116885375365_" gradientUnits="userSpaceOnUse" x1="71.0257" y1="333.0263" x2="77.0411" y2="324.003">
						<stop  offset="0.2796" style="stop-color:#BDBDBD"/>
						<stop  offset="1" style="stop-color:#98A7A7"/>
					</linearGradient>
					<path style="fill:url(#SVGID_00000078734393886868096820000015813833116885375365_);" d="M66.699,329.913
						c-2.66,0.323-4.278,0.538-4.853,0.647c-0.647,0.07-1.006,0.448-1.079,1.132c2.049,0.288,5.877,0.647,11.484,1.078
						c5.068,0.323,8.339,0.574,9.813,0.755c0.072-0.684,0.198-1.601,0.377-2.751c-0.072-0.179-0.144-0.358-0.216-0.538
						c-0.179-0.576-0.323-1.114-0.431-1.617c-1.761-0.216-3.091-0.378-3.99-0.485c-0.215,0-0.377,0-0.485,0L66.699,329.913z"/>
				</g>
			</g>
		</g>
		<g transform="matrix( 1, 0, 0, 1, 59.9,75.2) ">
			<g>
				<g id="Layer0_8_MEMBER_0_FILL">
					<path style="fill:#97A2A4;" d="M102.983,273.715c-1.006-3.485-1.653-5.787-1.941-6.901l-11.538,13.587
						c0.539,0.897,1.168,2.085,1.887,3.558c1.941,3.846,3.577,7.263,4.906,10.244c1.258,2.911,2.211,4.943,2.858,6.093
						c0.647,1.114,2.839,3.397,6.578,6.847l16.983,16.121c0.789-0.945,1.705-2.098,2.749-3.451c0.963-1.236,1.771-2.298,2.426-3.181
						c-2.501-2.581-5.52-5.762-9.058-9.543c-4.709-5.032-8.321-9.291-10.837-12.777c-1.258-4.96-2.156-8.716-2.695-11.268
						C104.762,280.49,103.99,277.382,102.983,273.715z"/>
				</g>
			</g>
		</g>
		<g transform="matrix( 1, 0, 0, 1.0760345458984375, 60.45,56.45) ">
			<g>
				<g id="Layer0_8_MEMBER_1_FILL">
					
						<linearGradient id="SVGID_00000158748197066626653280000011224425277556203938_" gradientUnits="userSpaceOnUse" x1="83.0875" y1="304.2494" x2="92.7126" y2="274.1711">
						<stop  offset="0.2796" style="stop-color:#BDBDBD"/>
						<stop  offset="1" style="stop-color:#98A7A7"/>
					</linearGradient>
					<path style="fill:url(#SVGID_00000158748197066626653280000011224425277556203938_);" d="M85.881,273.187
						c-0.369,0.977-0.872,2.234-1.509,3.775c-1.689,3.954-3.235,7.387-4.637,10.297c-1.438,2.875-2.372,4.924-2.804,6.146
						c-0.432,1.222-0.755,4.385-0.97,9.489l-1.402,24.746c2.276,0.771,4.991,1.293,8.141,1.563
						c0.378-4.106,0.971-9.588,1.779-16.442c0.805-6.82,1.721-12.302,2.75-16.445c2.948-4.17,5.212-7.298,6.794-9.381
						c1.618-2.046,3.504-4.669,5.661-7.872c2.03-2.981,3.359-4.941,3.989-5.876H85.881z"/>
				</g>
			</g>
		</g>
		<g transform="matrix( 0.9212646484375, 0.3889007568359375, -0.3889007568359375, 0.9212646484375, 156.45,27.9) ">
			<g>
				<g id="Layer0_8_MEMBER_2_FILL">
					<path style="fill:#BDBDBD;" d="M111.473,260.437c-0.432,0.252-0.79,0.45-1.078,0.594c-0.828,1.401-2.139,4.438-3.936,9.112
						c-1.69,4.455-3.433,7.979-5.23,10.567c-0.288,0-0.539,0.054-0.754,0.163c-0.288,0.035-0.504,0.125-0.648,0.267
						c-0.108,0.109-0.215,0.397-0.323,0.864c-0.179-0.036-2.48,0.576-6.901,1.833c-4.456,1.259-8.104,2.571-10.944,3.936
						c0.575,1.581,1.15,3.001,1.725,4.26c2.552-0.216,6.325-0.792,11.322-1.726c4.995-1.007,8.015-1.762,9.057-2.265
						c1.042-0.468,1.671-0.808,1.887-1.024c0.216-0.323,0.521-0.7,0.916-1.133c0.432-0.502,1.276-1.76,2.534-3.774
						c1.294-2.084,3.199-5.732,5.715-10.944c1.546-3.271,2.642-5.715,3.289-7.332c-0.18-0.612-0.449-1.097-0.809-1.455
						c-0.36-0.396-1.061-0.971-2.102-1.726c-0.54-0.431-1.061-0.773-1.564-1.025C113.055,259.736,112.336,260.006,111.473,260.437z"
						/>
				</g>
			</g>
		</g>
		<g transform="matrix( 1, 0, 0, 1, 60.45,76.8) ">
			<g>
				<g id="Layer0_8_MEMBER_3_FILL">
					
						<linearGradient id="SVGID_00000063606143192735846490000010800527605226933644_" gradientUnits="userSpaceOnUse" x1="114.7549" y1="220.6673" x2="103.9265" y2="245.5316">
						<stop  offset="0.2097" style="stop-color:#AEB7BD"/>
						<stop  offset="1" style="stop-color:#D4D4D4"/>
					</linearGradient>
					<path style="fill:url(#SVGID_00000063606143192735846490000010800527605226933644_);" d="M101.679,233.512
						c-1.151,0-1.995,0.038-2.534,0.109c-0.755,0.107-1.384,0.251-1.887,0.431c-0.971,0.216-1.762,0.809-2.373,1.779
						c-0.683,0.897-1.258,1.994-1.726,3.288c-3.054,8.52-5.588,15.457-7.601,20.812c-0.036,0.287-0.108,0.612-0.216,0.971
						c0,0.036-0.233,2.337-0.701,6.9c-0.252,2.66-0.413,5.177-0.485,7.549c0.721,0.196,2.932,0.341,6.631,0.432
						c3.734,0.128,6.788,0.108,9.165-0.054c2.416-0.129,3.944-0.254,4.583-0.378c-0.18-3.81-0.251-6.487-0.215-8.033
						c0.108-2.192,0.162-3.307,0.162-3.343c0.324-0.54,0.503-0.935,0.539-1.186c0.072-0.358,0.072-0.628,0-0.808
						c-0.251-0.577-0.376-0.882-0.376-0.918c-0.468-1.509-0.181-4.223,0.862-8.141c1.006-3.954,1.564-8.105,1.671-12.454
						c0.108-4.349-0.628-6.648-2.21-6.902C103.529,233.459,102.433,233.44,101.679,233.512z"/>
					<path style="fill:#FFC58E;" d="M104.967,233.565c0.575-2.981,0.988-5.265,1.24-6.847l-5.823,1.187
						c-0.36,1.689-0.773,3.595-1.24,5.716c0.54-0.071,1.383-0.109,2.534-0.109C102.433,233.44,103.529,233.459,104.967,233.565z"/>
				</g>
			</g>
		</g>
		<g transform="matrix( 0.437957763671875, 0.2060546875, -0.2060546875, 0.437957763671875, 90.6,133.1) ">
			<g>
				<g id="Layer0_8_MEMBER_4_MEMBER_0_FILL">
					<path style="fill:#FFBA77;" d="M242.821,287.972l-0.538-1.294c-0.971-2.3-2.679-3.449-5.125-3.453l-27.065,0.001
						c-2.444-0.001-3.664,1.225-3.664,3.668l-0.001,51.919c0,2.444,1.222,3.666,3.667,3.666l70.142,0
						c2.443-0.001,3.665-1.225,3.666-3.667l0-47.174c-0.001-2.446-1.223-3.666-3.667-3.666L242.821,287.972z"/>
				</g>
			</g>
		</g>
		<g transform="matrix( 0.437957763671875, 0.2060546875, -0.2060546875, 0.437957763671875, 90.6,133.1) ">
			<g>
				<g id="Layer0_8_MEMBER_4_MEMBER_1_FILL">
					<path style="fill:#FFFFFF;" d="M281.747,294.009c-0.001-2.443-1.203-3.664-3.613-3.665l-64.751-0.001
						c-2.444,0.002-3.666,1.223-3.666,3.669l0,27.226c-0.001,2.444,1.221,3.664,3.667,3.666l64.751-0.001
						c2.409,0.001,3.611-1.224,3.611-3.666L281.747,294.009z"/>
				</g>
			</g>
		</g>
		<g transform="matrix( 0.437957763671875, 0.2060546875, -0.2060546875, 0.437957763671875, 90.6,133.1) ">
			<g>
				<g id="Layer0_8_MEMBER_4_MEMBER_2_FILL">
					
						<linearGradient id="SVGID_00000119091242056496747650000017229920343872938115_" gradientUnits="userSpaceOnUse" x1="260.3466" y1="350.709" x2="259.3437" y2="325.4432">
						<stop  offset="0.2527" style="stop-color:#FCCC6F"/>
						<stop  offset="1" style="stop-color:#FCEA6F"/>
					</linearGradient>
					<path style="fill:url(#SVGID_00000119091242056496747650000017229920343872938115_);" d="M248.104,295.464l-0.54,1.24
						l-37.416,0.002c-2.443,0.001-3.667,1.221-3.665,3.664l0,47.232c0,2.444,1.221,3.664,3.666,3.667l70.143-0.003
						c2.444,0.001,3.666-1.223,3.665-3.664l0.002-51.973c-0.001-2.446-1.224-3.668-3.667-3.666l-27.066-0.003
						C250.783,291.961,249.075,293.128,248.104,295.464z"/>
				</g>
			</g>
		</g>
		<g transform="matrix( 0.9056549072265625, 0, 0, 0.9056549072265625, 70.6,98.2) ">
			<g>
				<g id="Layer0_8_MEMBER_5_FILL">
					
						<linearGradient id="SVGID_00000106115379752968151580000001155511169950121111_" gradientUnits="userSpaceOnUse" x1="99.5581" y1="210.1666" x2="107.3785" y2="199.9395">
						<stop  offset="0.1022" style="stop-color:#6D5847"/>
						<stop  offset="1" style="stop-color:#59727F"/>
					</linearGradient>
					<path style="fill:url(#SVGID_00000106115379752968151580000001155511169950121111_);" d="M111.852,204.926
						c-0.324-2.445-1.905-3.881-4.745-4.313c-1.957-0.149-3.502-0.293-4.637-0.43c-1.585,0.374-3.49,0.824-5.715,1.348
						c-4.385,1.004-7.386,1.706-9.003,2.103c-0.422-0.377-0.764-0.826-1.025-1.349c-0.602,1.235-0.512,2.961,0.27,5.176
						c0.824,2.225,1.543,3.592,2.157,4.098l2.642,0.432c3.953,0.431,7.728,0.286,11.322-0.432c0.144,0.146,0.575,0.666,1.294,1.564
						c0.539,0.684,1.025,1.151,1.456,1.402c0.539,0.36,1.025,0.647,1.456,0.864c-0.072,0.215-0.54,1.132-1.402,2.75
						c-0.54,0.863-0.917,1.581-1.132,2.157c0.431-0.145,0.934-0.306,1.51-0.486c1.329-0.215,2.443-0.251,3.343-0.108
						c0.467,0.108,0.88,0.216,1.24,0.324c0.934-1.941,1.761-3.9,2.48-5.877C114.584,209.064,114.081,205.991,111.852,204.926z"/>
					<path style="fill:#FFC58E;" d="M85.487,223.473c0.108,0.216,0.755,0.826,1.941,1.832c1.15,0.972,1.941,1.547,2.372,1.725
						c-0.216-2.443-0.181-4.529,0.107-6.253C87.356,222.395,85.882,223.292,85.487,223.473z"/>
					<path style="fill:#FFD7B1;" d="M105.866,214.523c-0.431-0.251-0.917-0.718-1.456-1.402c-0.719-0.897-1.15-1.418-1.294-1.564
						c-3.593,0.718-7.368,0.864-11.322,0.432c-0.899,3.737-1.51,6.433-1.833,8.086c-0.036,0.251-0.054,0.486-0.054,0.702
						c-0.288,1.724-0.323,3.81-0.107,6.253c0,0.397,0.018,0.791,0.053,1.186c0.288,2.876,0.701,4.656,1.24,5.336
						c5.105-0.106,8.932-0.808,11.484-2.102c2.516-1.258,4.205-2.965,5.068-5.121c1.15,0.071,2.246-0.198,3.288-0.809
						c1.043-0.611,1.635-1.349,1.779-2.212c0.216-1.151,0-2.011-0.647-2.588c-0.288-0.323-0.683-0.555-1.186-0.701
						c-0.36-0.108-0.773-0.216-1.24-0.324c-0.899-0.143-2.014-0.107-3.343,0.108c-0.575,0.18-1.079,0.342-1.51,0.486
						c0.215-0.576,0.593-1.294,1.132-2.157c0.862-1.618,1.33-2.535,1.402-2.75C106.891,215.169,106.406,214.883,105.866,214.523z"/>
				</g>
			</g>
		</g>
		<g transform="matrix( 0.7387542724609375, 0.1329803466796875, -0.1329803466796875, 0.7387542724609375, -102.9,43.95) ">
			<g>
				<g id="Layer0_8_MEMBER_5_MEMBER_0_FILL">
					<path style="fill:#F59B9B;" d="M402.398,279.948c-0.143-0.071-0.269-0.072-0.377,0.001c-1.869,1.114-3.288,1.672-4.258,1.672
						c-0.108,0-0.181,0.054-0.216,0.16c-0.108,0.074-0.143,0.181-0.108,0.324c0.037,0.144,0.108,0.27,0.216,0.378
						c0.071,0.109,0.179,0.162,0.323,0.163c1.079,0,2.605-0.595,4.583-1.779c0.072-0.072,0.126-0.163,0.162-0.269
						c0.035-0.145,0.017-0.289-0.054-0.432C402.596,280.092,402.506,280.018,402.398,279.948z"/>
					<path style="fill:#696969;" d="M398.409,267.116c-0.288,0.036-0.647,0.09-1.078,0.162c-0.863,0.216-1.491,0.377-1.887,0.485
						c0.251,1.365,0.736,2.049,1.455,2.049c0.755-0.034,1.222-0.197,1.402-0.485c0.144-0.288,0.251-0.611,0.323-0.97
						c0.036-0.361,0-0.631-0.107-0.809C398.517,267.405,398.481,267.259,398.409,267.116z"/>
				</g>
			</g>
		</g>
		<g transform="matrix( 0.7387542724609375, 0.1329803466796875, -0.1329803466796875, 0.7387542724609375, -102.9,43.95) ">
			<g>
				<g id="Layer0_8_MEMBER_5_MEMBER_1_FILL">
					<path style="fill:#696969;" d="M420.244,263.667c-3.451,0.215-8.483,0.538-15.097,0.97c-6.613,0.432-10.262,0.648-10.944,0.647
						c-0.037,0.612-0.09,1.294-0.162,2.048c-0.035,0.79-0.053,1.655-0.053,2.589c0,0.935,0.071,1.724,0.215,2.371l25.502-6.037
						c0.252-0.36,0.449-0.755,0.594-1.186C420.443,264.53,420.424,264.063,420.244,263.667 M397.708,266.847
						c1.546-0.25,2.659-0.395,3.343-0.432c-0.108,1.259-0.269,2.318-0.485,3.182c-2.3,0.395-3.972,0.628-5.014,0.702
						c-0.359-0.397-0.539-1.061-0.539-1.996c0-0.324,0.018-0.628,0.054-0.917C395.533,267.278,396.414,267.099,397.708,266.847z"/>
				</g>
			</g>
		</g>
		<g transform="matrix( 0.347869873046875, 0.7523651123046875, -0.7523651123046875, 0.347869873046875, 238.35,-107.9) ">
			<g>
				<g id="Layer0_8_MEMBER_6_FILL">
					<path style="fill:#FFD7B1;" d="M421.58,350.647c-0.469,0.071-0.774,0.125-0.917,0.161c-0.144,0.071-0.216,0.269-0.215,0.594
						c-0.002,0.178,0.143,0.377,0.431,0.592c0.25,0.178,0.502,0.287,0.755,0.324c0.574-0.001,1.15-0.162,1.724-0.486
						c0.144-0.072,0.27-0.144,0.377-0.215c-0.215,0.431-0.413,1.024-0.593,1.779c-0.538,1.583-0.845,2.75-0.916,3.504
						c0.035,0.288,0.143,0.486,0.323,0.593c0.035,0.036,0.178,0.072,0.431,0.108c0.539,0.001,1.313-0.377,2.318-1.131
						c0.576,0.719,1.007,1.079,1.294,1.078c0.684-0.217,1.205-0.558,1.564-1.025c0.755,0.431,1.151,0.665,1.187,0.701
						c0.97-0.863,1.815-1.438,2.534-1.725c0.107-0.719,0.179-1.654,0.215-2.804c0.034-1.006,0.09-1.708,0.161-2.103
						c-0.792-0.396-1.331-0.844-1.616-1.348c-0.145-0.862,0.286-2.193,1.293-3.99l-4.26-1.564c-0.144,0.468-0.323,1.044-0.54,1.725
						c-0.287,0.935-0.466,1.636-0.54,2.103c-1.615,0.144-2.461,0.27-2.533,0.377c-0.18,0.467-0.647,1.078-1.403,1.833
						C422.334,350.234,421.975,350.539,421.58,350.647z"/>
				</g>
			</g>
		</g>
		<g transform="matrix( 0.347869873046875, 0.7523651123046875, -0.7523651123046875, 0.347869873046875, 238.35,-107.9) ">
			<g>
				<g id="Layer0_8_MEMBER_7_FILL">
					
						<linearGradient id="SVGID_00000099639029139294170750000017473442832303193782_" gradientUnits="userSpaceOnUse" x1="430.5363" y1="324.755" x2="448.1819" y2="299.4898">
						<stop  offset="0.2796" style="stop-color:#BDBDBD"/>
						<stop  offset="1" style="stop-color:#98A7A7"/>
					</linearGradient>
					<path style="fill:url(#SVGID_00000099639029139294170750000017473442832303193782_);" d="M432.955,301.26
						c-2.121-3.81-3.774-6.613-4.96-8.41c-0.719-0.18-1.367-0.234-1.941-0.162c-0.646,0.072-1.725,0.36-3.235,0.862
						c-0.79,0.252-1.474,0.521-2.05,0.809c-0.323,0.683-0.556,1.582-0.701,2.695c-0.07,0.612-0.125,1.133-0.161,1.564
						c0.791,1.761,2.876,5.14,6.254,10.136c3.234,4.78,5.517,8.932,6.848,12.454c-0.216,0.36-0.359,0.665-0.433,0.916
						c-0.143,0.288-0.197,0.558-0.16,0.809c0.035,0.216,0.251,0.522,0.646,0.917c-0.144,0.179-1.131,2.893-2.966,8.14
						c-1.832,5.212-3.053,9.706-3.665,13.479c1.94,0.539,3.738,0.952,5.391,1.241c1.582-2.66,3.613-6.775,6.093-12.347
						c2.517-5.642,3.882-9.147,4.098-10.513c0.251-1.366,0.341-2.246,0.269-2.642c-0.143-0.395-0.305-0.952-0.484-1.67
						c-0.217-0.756-0.881-2.463-1.997-5.123C438.652,311.684,436.37,307.299,432.955,301.26z"/>
				</g>
			</g>
		</g>
		<g transform="matrix( 1, 0, 0, 1, 59.9,75.2) ">
			<g>
				<g id="Layer0_8_MEMBER_9_FILL">
					<path style="fill:#97A2A4;" d="M125.682,327.629c2.803-4.241,4.654-6.953,5.553-8.141c-0.54-0.395-1.276-0.953-2.211-1.671
						c-0.179-0.036-0.377-0.072-0.593-0.107c-0.539-0.109-1.078-0.253-1.617-0.433c-1.042,1.44-1.833,2.499-2.373,3.182
						c-0.108,0.217-0.18,0.358-0.215,0.431l-3.829,10.136c-0.627,1.472-1.095,2.604-1.401,3.398
						c0.014,0.403,0.032,0.835,0.054,1.293c0.031,0.124,0.211,0.304,0.539,0.538C120.926,334.499,122.956,331.624,125.682,327.629z"
						/>
				</g>
			</g>
		</g>
	</g>
	<g transform="matrix( 0.9041900634765625, 0, 0, 1, 30.1,21.45) ">
		<g>
			<g id="Layer0_9_FILL">
				
					<linearGradient id="SVGID_00000078028868514395787720000005077028221498043776_" gradientUnits="userSpaceOnUse" x1="242.6732" y1="176.6666" x2="242.6732" y2="107.3026">
					<stop  offset="0.0108" style="stop-color:#FFFFFF"/>
					<stop  offset="1" style="stop-color:#AEF5FF"/>
				</linearGradient>
				<path style="fill:url(#SVGID_00000078028868514395787720000005077028221498043776_);" d="M224.451,104.259
					c-8.591,0-15.941,3.001-22.051,9.004c-6.038,6.11-9.057,13.478-9.057,22.104c0,1.725,0.125,3.396,0.377,5.014
					c0.022,0.146,0.039,0.29,0.054,0.432c-1.084-0.503-2.216-0.934-3.397-1.294c-2.375-0.683-4.909-1.024-7.602-1.024
					c-7.224,0-13.407,2.534-18.546,7.602c-5.104,5.14-7.656,11.34-7.656,18.601c0,0.527,0.018,1.048,0.055,1.563
					c0.621,6.117,3.82,9.315,9.597,9.597h147.186c6.332,0.09,10.915-2.965,13.749-9.166c1.077-2.987,1.617-6.204,1.617-9.651
					c0-7.98-2.821-14.79-8.464-20.433c-5.572-5.571-12.329-8.356-20.274-8.356c-5.426,0-10.315,1.293-14.664,3.881
					c0-0.19,0-0.387,0-0.593c0-6.002-2.119-11.124-6.361-15.366c-4.207-4.169-9.291-6.254-15.258-6.254
					c-5.821,0-10.818,1.978-14.989,5.931c-0.736-0.88-1.526-1.742-2.372-2.588C240.355,107.26,233.041,104.259,224.451,104.259z"/>
			</g>
		</g>
	</g>
	<g>
		<g transform="matrix( 1, 0, 0, 1, -76.5,43.2) ">
			<g>
				<g id="Layer0_10_FILL">
					<path style="fill:#FF7E78;" d="M404.631,193.789l-20.109-28.467c-2.912-3.989-5.625-3.989-8.141,0l-20.003,28.359
						c-2.454,3.779-1.789,5.863,1.995,6.254c0.428,0.068,0.895,0.104,1.401,0.107h41.46
						C405.513,199.468,406.644,197.383,404.631,193.789z"/>
				</g>
			</g>
		</g>
		<g transform="matrix( 0.8235321044921875, 0, 0, 0.8235321044921875, -25.8,99.9) ">
			<g>
				<g id="Layer0_10_MEMBER_0_FILL">
					<path style="fill:#FFFFFF;" d="M402.255,170.759c0.538-0.54,0.808-1.204,0.808-1.995c0-0.79-0.269-1.456-0.808-1.995
						c-0.503-0.54-1.168-0.809-1.995-0.809c-0.863,0-1.563,0.269-2.104,0.809c-0.539,0.539-0.826,1.205-0.863,1.995
						c0.037,0.791,0.324,1.456,0.863,1.995c0.541,0.54,1.24,0.827,2.104,0.863C401.087,171.586,401.752,171.298,402.255,170.759
						 M402.739,140.405h-5.014l0.809,21.189h3.343L402.739,140.405z"/>
				</g>
			</g>
		</g>
	</g>
	<g transform="matrix( 1, 0, 0, 1, -4.15,21.45) ">
		<g>
			<g id="Layer0_11_FILL">
				
					<linearGradient id="SVGID_00000013882772090251719010000017911651430933713586_" gradientUnits="userSpaceOnUse" x1="253.7009" y1="220.8761" x2="253.7009" y2="143.4626">
					<stop  offset="0.2151" style="stop-color:#77D445"/>
					<stop  offset="1" style="stop-color:#E8FF70"/>
				</linearGradient>
				<path style="fill:url(#SVGID_00000013882772090251719010000017911651430933713586_);" d="M249.954,216.294v1.617h7.494v-1.617
					H249.954 M249.954,212.089v3.073h7.494v-3.073H249.954 M257.448,206.104h-7.494v4.852h7.494V206.104 M238.901,186.479
					c-0.467,0.754-0.61,1.563-0.431,2.426c0.288,0.862,0.827,1.527,1.617,1.995l0.863,0.485c0.791,0.467,1.582,0.576,2.372,0.324
					c0.898-0.252,1.582-0.755,2.049-1.51l4.583-7.979v22.59h7.494v-23.183c0-0.036,0-0.072,0-0.108l4.583,7.979
					c0.468,0.755,1.149,1.258,2.049,1.509c0.79,0.253,1.582,0.145,2.371-0.323l0.863-0.485c0.791-0.467,1.33-1.132,1.618-1.994
					c0.179-0.863,0.036-1.672-0.432-2.426l-8.95-15.474c-1.689-2.587-3.486-3.811-5.391-3.666c-2.301-0.145-4.295,1.079-5.985,3.666
					L238.901,186.479z"/>
			</g>
		</g>
	</g>
	<g style="opacity:0.3;">
		<path style="fill:#579CBD;" d="M277.727,293.781c0.767,0.175,1.459,0.347,2.083,0.521c0.313-0.659,0.554-1.301,0.727-1.926
			L277.727,293.781z"/>
		<path style="fill:#579CBD;" d="M265.5,274.01c-0.242-0.276-0.676-0.658-1.3-1.145c-0.556-0.415-1.041-0.728-1.458-0.935
			c-0.138,0.484-0.433,1.44-0.883,2.862c0.483-0.07,1.074-0.175,1.768-0.313C264.356,274.341,264.98,274.184,265.5,274.01z"/>
		<path style="fill:#579CBD;" d="M261.338,283.999c0.034,0.037,0.053,0.071,0.053,0.107c2.014,0.451,3.798,1.439,5.358,2.965
			c1.528,1.527,2.431,3.765,2.707,6.711c0.832-0.21,1.907-0.504,3.225-0.884c0.081-0.008,0.169-0.026,0.26-0.052
			c0.808-0.219,1.555-0.426,2.237-0.624L277,289.62c-0.822-3.613-2.417-6.439-4.787-8.481c-1.769-1.665-3.677-2.931-5.724-3.798
			c-1.595,0.486-2.811,0.815-3.642,0.988c-0.66,0.521-1.04,0.988-1.146,1.404c-0.345,0.729-0.658,1.753-0.935,3.07
			c0,0.069,0.017,0.155,0.051,0.261C260.817,283.099,260.991,283.411,261.338,283.999z"/>
		<path style="fill:#579CBD;" d="M269.819,296.02c-0.416,0.764-0.763,1.387-1.041,1.873c-0.103,0.208-0.19,0.398-0.26,0.572
			c0.833,0.833,1.752,1.543,2.758,2.133c0.972,0.52,2.048,0.953,3.225,1.301c0.348,0.068,0.729,0.174,1.144,0.313
			c0.07-0.139,0.14-0.261,0.209-0.364c0.625-1.145,1.146-2.254,1.561-3.329l-4.005-1.926L269.819,296.02z"/>
		<path style="fill:#579CBD;" d="M255.095,283.688c-1.534,0.932-2.572,1.593-3.122,1.978l3.901,1.768l2.341-2.342
			C256.359,284.046,255.318,283.58,255.095,283.688z"/>
		<path style="fill:#579CBD;" d="M273.917,312.03l-6.186-0.837l-27.5-3.73l-0.641-16.334c0.347-2.36,1.37-4.476,3.069-6.349
			l0.053-0.052c2.219-2.394,4.977-3.66,8.272-3.8c0.363-0.016,0.708-0.051,1.04-0.104c0.368-0.05,0.82-0.154,1.354-0.311
			c1.409-0.44,2.605-0.805,3.59-1.094c0.048-0.024,0.086-0.061,0.103-0.104c0.614-0.405,0.979-1.15,1.093-2.236l-0.26-3.227
			c-2.248-0.756-4.66-1.086-7.232-0.989c-5.515,0.208-10.163,2.341-13.943,6.4l-0.053,0.052c-2.948,3.296-4.665,7.077-5.15,11.344
			c0,0.174,0,0.363,0,0.571l0.589,15.142c-1.97-0.218-3.097,0.672-3.369,2.684l-4.921,36.297c-0.279,2.063,0.612,3.234,2.675,3.515
			l34.854,4.723l6.806,0.924c2.063,0.279,3.233-0.612,3.513-2.675l4.921-36.298C276.871,313.482,275.98,312.31,273.917,312.03z"/>
	</g>
	<g>
		<g transform="matrix( 1, 0, 0, 1, -13.8,48.8) ">
			<g>
				<g id="Layer0_12_MEMBER_0_FILL">
					<path style="fill:#ECECEC;" d="M291.486,230.764c0.842,0.192,1.604,0.382,2.29,0.573c0.345-0.726,0.61-1.432,0.803-2.119
						L291.486,230.764 M288.682,229.047l2.004-2.862c-0.904-3.975-2.66-7.084-5.267-9.331c-1.946-1.832-4.046-3.226-6.298-4.178
						c-1.756,0.533-3.091,0.896-4.007,1.087c-0.726,0.571-1.145,1.087-1.26,1.546c3.055,0.84,5.764,2.403,8.129,4.692
						c2.215,2.215,3.529,5.477,3.95,9.789c0.089-0.008,0.187-0.028,0.286-0.057C287.11,229.493,287.931,229.265,288.682,229.047
						 M291.143,235.973c-1.375,0-3.13-0.211-5.267-0.63c-0.19,0.114-0.457,0.477-0.801,1.088c-0.151,0.267-0.4,0.839-0.745,1.718
						l0.058,0.113c1.069,0.573,2.253,1.05,3.55,1.432c0.382,0.075,0.801,0.191,1.259,0.343c0.075-0.152,0.153-0.286,0.228-0.399
						C290.112,238.378,290.686,237.156,291.143,235.973 M265.611,212.789c0.759-0.732,2.114-2.049,4.064-3.949
						c-2.473-0.833-5.125-1.194-7.955-1.088c-6.069,0.227-11.182,2.576-15.342,7.041l-0.058,0.057
						c-3.244,3.626-5.133,7.785-5.667,12.479c0,0.191,0,0.4,0,0.63l0.973,25.016c0.038,1.22,0.496,2.252,1.374,3.092
						c0.916,0.802,1.985,1.184,3.206,1.144c0.344-0.037,0.667-0.075,0.973-0.112l-1.202-30.513c0.458-3.281,1.87-6.24,4.236-8.873
						l0.115-0.113c3.206-3.397,7.117-5.191,11.735-5.383C263.407,212.16,264.589,212.353,265.611,212.789 M278.033,209.012
						c-0.267-0.307-0.743-0.726-1.431-1.26c-0.611-0.458-1.145-0.802-1.603-1.03c-0.152,0.533-0.477,1.584-0.973,3.148
						c0.534-0.078,1.184-0.191,1.946-0.344C276.776,209.373,277.46,209.202,278.033,209.012z"/>
					<path style="fill:#E0E0E0;" d="M272.824,218.685c0,0.076,0.02,0.171,0.057,0.287c0,0.038,0.191,0.381,0.573,1.028
						c0.038,0.041,0.059,0.078,0.059,0.116c2.213,0.496,4.177,1.582,5.895,3.263c1.682,1.68,2.674,4.141,2.978,7.384
						c0.917-0.232,2.1-0.556,3.549-0.974c-0.421-4.312-1.735-7.574-3.95-9.789c-2.365-2.289-5.074-3.853-8.129-4.692
						C273.474,216.109,273.129,217.235,272.824,218.685 M282.786,233.224c-0.459,0.841-0.841,1.528-1.146,2.063
						c-0.114,0.228-0.209,0.438-0.286,0.629c0.916,0.916,1.928,1.697,3.034,2.347l-0.058-0.113c0.345-0.879,0.594-1.451,0.745-1.718
						c0.344-0.611,0.61-0.974,0.801-1.088L282.786,233.224 M266.585,219.658c-1.687,1.025-2.831,1.752-3.434,2.177l4.293,1.945
						C266.978,221.608,266.693,220.233,266.585,219.658 M250.328,217.598l-0.115,0.113c-2.366,2.633-3.778,5.592-4.236,8.873
						l1.202,30.513c0.802-0.229,1.508-0.65,2.118-1.262c0.84-0.916,1.241-1.982,1.203-3.204l-0.974-24.786
						c0.382-2.597,1.507-4.925,3.378-6.984l0.057-0.058c2.443-2.633,5.476-4.026,9.102-4.18c0.398-0.018,0.779-0.056,1.145-0.113
						c0.405-0.056,0.901-0.171,1.488-0.344c0.323-1.766,0.629-2.891,0.916-3.378c-1.022-0.436-2.204-0.629-3.549-0.573
						C257.444,212.407,253.533,214.201,250.328,217.598z"/>
					<path style="fill:#BFBFBF;" d="M291.143,235.973l-4.406-2.118l-3.95-0.631l3.09,2.119
						C288.013,235.763,289.768,235.973,291.143,235.973 M267.444,223.78L267.444,223.78l2.575-2.577
						c-2.043-1.151-3.188-1.665-3.434-1.545C266.693,220.233,266.978,221.608,267.444,223.78 M268.646,214.965
						c0.054-0.028,0.094-0.067,0.115-0.115c0.675-0.446,1.076-1.266,1.201-2.461l-0.287-3.549c-1.949,1.9-3.305,3.217-4.064,3.949
						c-0.287,0.487-0.593,1.612-0.916,3.378C266.246,215.683,267.563,215.283,268.646,214.965z"/>
				</g>
			</g>
		</g>
		<g transform="matrix( 0.990936279296875, 0.1343231201171875, -0.1343231201171875, 0.990936279296875, -11.95,-38.55) ">
			<g>
				<g id="Layer0_12_MEMBER_1_FILL">
					
						<linearGradient id="SVGID_00000145050670363078792730000012090963052671888034_" gradientUnits="userSpaceOnUse" x1="293.5527" y1="349.0744" x2="320.6959" y2="284.8499">
						<stop  offset="0.2527" style="stop-color:#FCCC6F"/>
						<stop  offset="1" style="stop-color:#FCEA6F"/>
					</linearGradient>
					<path style="fill:url(#SVGID_00000145050670363078792730000012090963052671888034_);" d="M321.416,296.785l-39.386-0.001
						c-2.29,0.001-3.434,1.145-3.434,3.434l0,40.301c0,2.29,1.145,3.435,3.434,3.435l38.698-0.001
						c2.291-0.497,3.435-1.641,3.434-3.434l-0.001-40.301C324.162,298.426,323.247,297.282,321.416,296.785z"/>
					<path style="fill:#F09F5A;" d="M331.719,300.221c0.001-2.29-1.145-3.436-3.434-3.435l-6.869,0
						c1.831,0.497,2.746,1.641,2.745,3.434l0.001,40.301c0,1.792-1.143,2.937-3.434,3.434l7.557,0.001
						c2.289,0,3.434-1.144,3.434-3.434L331.719,300.221z"/>
				</g>
			</g>
		</g>
		<g transform="matrix( 0.99090576171875, 0.1343231201171875, -0.1343231201171875, 0.99090576171875, -11.9,-38.55) ">
			<g>
				<g id="Layer0_12_MEMBER_1_MEMBER_0_FILL">
					<path style="fill:#CB842E;" d="M300.526,318.764c0-1.259,0.44-2.327,1.317-3.205c0.391-0.393,0.811-0.697,1.26-0.916
						c-0.563-0.268-1.191-0.399-1.889-0.401c-1.26,0-2.328,0.44-3.206,1.318c-0.878,0.877-1.317,1.945-1.316,3.205
						c0,1.259,0.438,2.328,1.316,3.206c0.587,0.586,1.254,0.968,2.004,1.144l-0.974,5.381l4.579-0.058l-0.972-5.38
						c0.165-0.035,0.318-0.092,0.457-0.17c-0.453-0.226-0.874-0.532-1.259-0.917C300.965,321.091,300.526,320.024,300.526,318.764z"
						/>
					<path style="fill:#664F32;" d="M304.419,315.56c-0.391-0.392-0.83-0.699-1.316-0.917c-0.449,0.219-0.869,0.523-1.26,0.916
						c-0.877,0.878-1.316,1.946-1.317,3.205c0.001,1.26,0.44,2.327,1.317,3.206c0.385,0.385,0.806,0.691,1.259,0.917
						c0.485-0.219,0.923-0.524,1.317-0.917c0.878-0.877,1.316-1.947,1.316-3.207C305.735,317.505,305.296,316.437,304.419,315.56z"
						/>
				</g>
			</g>
		</g>
	</g>
	<g>
		<g transform="matrix( 1, 0, 0, 1, -82.3,84.35) ">
			<g>
				<g id="Layer0_13_MEMBER_0_FILL">
					<path style="fill:#97A2A4;" d="M472.378,309.529c-0.466,0-0.898,0-1.293,0c-0.755,0.36-1.869,0.846-3.343,1.457l-10.136,4.043
						c-0.036,0-0.145,0.072-0.324,0.216c-0.718,0.574-1.905,0.952-3.559,1.133c0.468,1.438,0.738,2.407,0.81,2.91
						c0.071,0.254,0.144,0.468,0.216,0.647c0.719,0.898,1.276,1.6,1.671,2.103c1.15-0.899,3.81-2.786,7.979-5.661
						c3.954-2.841,6.794-4.943,8.519-6.309C472.63,309.71,472.451,309.529,472.378,309.529z"/>
				</g>
			</g>
		</g>
		<g transform="matrix( 1, 0, 0, 1, -81.85,83) ">
			<g>
				<g id="Layer0_13_MEMBER_1_FILL">
					<path style="fill:#97A2A4;" d="M421.142,282.736c-1.136,2.016-2.071,3.67-2.804,4.96c2.643,0.599,6.237,1.463,10.783,2.588
						c4.632,1.185,9.376,2.604,14.232,4.26c0.453,1.242,1.513,4.153,3.181,8.733c1.461,4.011,3.51,9.239,6.147,15.689
						c2.148-0.996,4.627-2.003,7.441-3.019c-4.65-15.317-7.92-25.364-9.814-30.139c-0.779-1.068-1.517-1.878-2.21-2.427
						c-0.241-0.209-0.493-0.388-0.755-0.538c-0.233-0.073-0.503-0.164-0.81-0.27c-2.235-0.794-5.885-1.962-10.943-3.505
						c-4.616-1.427-8.192-2.541-10.729-3.342C423.976,277.519,422.738,279.854,421.142,282.736z"/>
				</g>
			</g>
		</g>
		<g transform="matrix( 1, 0, 0, 1, -81.85,84.05) ">
			<g>
				<g id="Layer0_13_MEMBER_2_FILL">
					
						<linearGradient id="SVGID_00000089556518923184723150000018360822678639539609_" gradientUnits="userSpaceOnUse" x1="397.2361" y1="304.9033" x2="417.9796" y2="266.9724">
						<stop  offset="0.2796" style="stop-color:#BDBDBD"/>
						<stop  offset="1" style="stop-color:#98A7A7"/>
					</linearGradient>
					<path style="fill:url(#SVGID_00000089556518923184723150000018360822678639539609_);" d="M429.067,273.437h-17.523
						c-1.309,3.31-2.279,5.914-2.911,7.817c-0.631,1.942-1.962,5.662-3.989,11.161c-3.271,2.804-7.8,6.074-13.587,9.811
						c-4.349,2.84-8.052,5.249-11.106,7.225c0.433,0.971,0.971,2.157,1.617,3.559c0.685,1.582,1.294,2.93,1.834,4.044l20.38-11.646
						c4.456-2.443,7.116-4.152,7.979-5.122c0.935-0.934,2.354-2.66,4.26-5.176c2.017-2.588,4.155-5.751,6.416-9.489
						C424.408,282.385,426.617,278.322,429.067,273.437z"/>
				</g>
			</g>
		</g>
		<g transform="matrix( 1, 0, 0, 1, -58,72.4) ">
			<g>
				<g id="Layer0_13_MEMBER_3_FILL">
					<path style="fill:#BDBDBD;" d="M392.654,246.592c-0.934-0.071-1.707-0.036-2.318,0.108c-0.358,0.432-0.7,0.952-1.024,1.563
						c-0.646,1.078-1.078,1.868-1.293,2.371c-0.18,0.468-0.216,1.024-0.108,1.673c1.186,1.258,3.146,3.073,5.877,5.445
						c4.314,3.846,7.477,6.47,9.489,7.871c1.94,1.366,3.217,2.21,3.827,2.533c0.446,0.18,0.806,0.358,1.078,0.54v-8.681
						c-2.176-1.597-4.549-3.737-7.116-6.416c-3.486-3.629-5.877-5.931-7.171-6.9C393.571,246.701,393.159,246.665,392.654,246.592z"
						/>
				</g>
			</g>
		</g>
		<g transform="matrix( -1, 0, 0, 1, 433.5,84.05) ">
			<g>
				<g id="Layer0_13_MEMBER_4_FILL">
					<path style="fill:#D4D4D4;" d="M106.394,234.134c-1.438-0.107-2.534-0.126-3.289-0.054c-1.15,0-1.994,0.037-2.534,0.108
						c-0.754,0.107-1.385,0.251-1.887,0.431c-0.971,0.217-1.762,0.809-2.372,1.779c-0.685,0.898-1.259,1.994-1.726,3.288
						c-3.056,8.52-5.589,15.457-7.602,20.812c-0.035,0.288-0.107,0.612-0.215,0.971c0,0.036-0.233,2.337-0.701,6.9
						c-0.252,2.66-0.413,5.177-0.485,7.548c0.722,0.198,2.932,0.343,6.632,0.433c3.732,0.128,6.788,0.108,9.165-0.054
						c2.416-0.128,3.944-0.255,4.583-0.379c-0.18-3.81-0.252-6.486-0.216-8.032c0.107-2.192,0.161-3.307,0.161-3.343
						c0.324-0.539,0.504-0.935,0.539-1.186c0.073-0.359,0.073-0.629,0-0.809c-0.251-0.577-0.376-0.882-0.376-0.917
						c-0.469-1.51-0.181-4.224,0.861-8.142c1.007-3.954,1.563-8.105,1.672-12.453C108.712,236.686,107.975,234.387,106.394,234.134z
						"/>
					<path style="fill:#FFC58E;" d="M106.394,234.134c0.574-2.982,0.987-5.265,1.24-6.848l-5.823,1.187
						c-0.359,1.689-0.773,3.595-1.24,5.716c0.54-0.071,1.384-0.108,2.534-0.108C103.859,234.008,104.955,234.026,106.394,234.134z"
						/>
				</g>
			</g>
		</g>
		<g transform="matrix( 1, 0, 0, 1, -58,72.4) ">
			<g>
				<g id="Layer0_13_MEMBER_5_FILL">
					<path style="fill:#FFD7B1;" d="M386.563,225.242c-0.144,0.109-0.539,0.577-1.185,1.402c-0.504,0.61-0.953,1.025-1.348,1.241
						c-0.468,0.323-0.899,0.592-1.295,0.808c0.072,0.179,0.485,1.007,1.241,2.48c0.502,0.79,0.845,1.437,1.023,1.941
						c-0.36-0.107-0.81-0.251-1.348-0.431c-1.187-0.18-2.192-0.216-3.021-0.108c-0.43,0.108-0.808,0.216-1.131,0.324
						c-0.468,0.107-0.826,0.306-1.078,0.593c-0.575,0.539-0.774,1.33-0.593,2.372c0.144,0.79,0.682,1.455,1.617,1.995
						c0.934,0.539,1.923,0.791,2.965,0.754c0.791,1.941,2.336,3.487,4.637,4.638c2.301,1.149,5.75,1.779,10.352,1.886
						c0.503-0.609,0.881-2.228,1.132-4.851c0.037-0.361,0.055-0.719,0.055-1.079c0.216-2.192,0.179-4.08-0.108-5.661
						c0-0.179-0.018-0.377-0.054-0.593c-0.222-1.16-0.599-2.867-1.132-5.122c-0.141-0.69-0.303-1.427-0.486-2.21
						C393.213,226.015,389.798,225.889,386.563,225.242z"/>
					
						<linearGradient id="SVGID_00000136402054795310591080000011534502008200392610_" gradientUnits="userSpaceOnUse" x1="389.2665" y1="225.2766" x2="386.5992" y2="208.6817">
						<stop  offset="0" style="stop-color:#FFBD34"/>
						<stop  offset="1" style="stop-color:#B8EADE"/>
					</linearGradient>
					<path style="fill:url(#SVGID_00000136402054795310591080000011534502008200392610_);" d="M399.825,213.651
						c-0.239,0.191-0.832,0.478-1.778,0.862c-1.196,0.514-2.042,0.944-2.535,1.294c0.075-0.226,0.13-0.803,0.163-1.725
						c0.027-0.854,0.044-1.429,0.054-1.726c-0.599,0.163-1.568,0.47-2.912,0.917c-1.435,0.479-2.549,0.908-3.342,1.294
						c0.285-0.72,0.429-1.978,0.432-3.774c-2.002,0.767-3.691,1.468-5.069,2.102c-2.367,1.101-4.073,2.358-5.121,3.773
						c-0.308-0.819-0.847-1.538-1.617-2.156c-1.262,5.77-1.549,10.12-0.863,13.049c0.683,1.797,1.438,3.575,2.265,5.337
						c0.323-0.108,0.701-0.216,1.131-0.324c0.828-0.107,1.834-0.071,3.021,0.108c0.538,0.18,0.987,0.323,1.348,0.431
						c-0.179-0.504-0.522-1.15-1.023-1.941c-0.756-1.474-1.169-2.302-1.241-2.48c0.395-0.216,0.827-0.484,1.295-0.808
						c0.395-0.217,0.844-0.631,1.348-1.241c0.646-0.825,1.042-1.293,1.185-1.402c3.235,0.647,6.65,0.773,10.243,0.379
						c0.184,0.783,0.346,1.52,0.486,2.21C399.685,224.024,400.529,219.298,399.825,213.651z"/>
					<path style="fill:#FFC58E;" d="M398.477,233.545c0.287,1.581,0.324,3.469,0.108,5.661c0.395-0.144,1.113-0.665,2.156-1.564
						c1.078-0.897,1.671-1.436,1.779-1.617C402.162,235.845,400.813,235.02,398.477,233.545z"/>
				</g>
			</g>
		</g>
		<g transform="matrix( -1, 0, 0, 1, 433.5,84.05) ">
			<g>
				<g id="Layer0_13_MEMBER_5_MEMBER_0_FILL">
					<path style="fill:#F59B9B;" d="M94.154,228.959c0.036,0.107,0.09,0.215,0.162,0.323c0,0.07,0.055,0.126,0.161,0.161
						c0.791,0.143,2.013-0.091,3.668-0.701c0.035-0.036,0.07-0.107,0.106-0.215c0.072-0.108,0.072-0.215,0-0.324
						c0-0.035-0.036-0.107-0.106-0.214c-0.109-0.037-0.198-0.037-0.271,0c-1.545,0.574-2.678,0.788-3.397,0.646
						c-0.071,0-0.145,0.053-0.215,0.161C94.19,228.797,94.154,228.85,94.154,228.959z"/>
					<path style="fill:#696969;" d="M96.851,218.067c-0.216-0.036-0.485-0.053-0.809-0.053c-0.647,0.035-1.132,0.071-1.456,0.106
						c0.036,1.043,0.306,1.617,0.809,1.726c0.575,0.071,0.952,0,1.133-0.215c0.143-0.18,0.252-0.396,0.323-0.647
						c0.107-0.288,0.126-0.486,0.054-0.594C96.94,218.284,96.922,218.175,96.851,218.067z"/>
				</g>
			</g>
		</g>
		<g transform="matrix( -1, 0, 0, 1, 433.5,84.05) ">
			<g>
				<g id="Layer0_13_MEMBER_5_MEMBER_1_FILL">
					<path style="fill:#696969;" d="M112.755,220.224c0.216-0.252,0.413-0.503,0.593-0.756c0.18-0.395,0.217-0.755,0.107-1.078
						c-2.586-0.286-6.343-0.718-11.267-1.294c-4.926-0.538-7.657-0.861-8.195-0.97c-0.072,0.432-0.198,0.935-0.377,1.51
						c-0.109,0.575-0.217,1.203-0.323,1.887c-0.145,0.683-0.217,1.276-0.217,1.779L112.755,220.224 M98.898,217.851
						c-0.215,0.935-0.467,1.708-0.753,2.319c-1.763-0.036-3.022-0.091-3.774-0.162c-0.217-0.36-0.252-0.88-0.108-1.564
						c0.035-0.251,0.07-0.484,0.108-0.7c0.358,0,1.041,0,2.048,0C97.568,217.781,98.397,217.816,98.898,217.851z"/>
				</g>
			</g>
		</g>
		<g transform="matrix( 0.828887939453125, 0, 0, 0.828887939453125, -10.65,69.85) ">
			<g>
				<g id="Layer0_13_MEMBER_6_MEMBER_0_FILL">
					
						<linearGradient id="SVGID_00000088827641309647050630000003250564459308376203_" gradientUnits="userSpaceOnUse" x1="436.4314" y1="345.55" x2="424.2817" y2="309.6939">
						<stop  offset="0.2849" style="stop-color:#FDBD7E"/>
						<stop  offset="1" style="stop-color:#FADE7D"/>
					</linearGradient>
					<path style="fill:url(#SVGID_00000088827641309647050630000003250564459308376203_);" d="M402.565,351.87
						c0.142,1.439,0.935,2.087,2.37,1.942l56.88-5.714c1.403-0.145,2.032-0.935,1.889-2.373l-3.666-36.769
						c-0.144-1.439-0.917-2.085-2.319-1.942l-56.88,5.716c-1.439,0.141-2.084,0.933-1.942,2.37L402.565,351.87z"/>
				</g>
			</g>
		</g>
		<g transform="matrix( 0.828887939453125, 0, 0, 0.828887939453125, -10.65,69.85) ">
			<g>
				<g id="Layer0_13_MEMBER_6_MEMBER_1_FILL">
					<path style="fill:#FFFFFF;" d="M419.547,344.592c-0.108-1.079-0.556-1.959-1.348-2.641c-0.898-0.683-1.886-0.971-2.965-0.864
						c-0.898,0.072-1.634,0.414-2.209,1.025c-0.145,0.107-0.27,0.251-0.378,0.43c-0.685,0.828-0.971,1.78-0.864,2.858
						c0.108,1.078,0.577,1.959,1.402,2.641c0.145,0.108,0.289,0.216,0.431,0.324c0.72,0.468,1.528,0.665,2.427,0.593
						c1.079-0.107,1.977-0.61,2.696-1.51C419.385,346.624,419.654,345.67,419.547,344.592 M430.061,330.198
						c-0.073-0.649-0.287-1.186-0.647-1.619c-0.359-0.358-0.755-0.521-1.186-0.485l-7.71,0.809c-0.43,0.037-0.808,0.271-1.132,0.701
						c-0.251,0.503-0.342,1.078-0.269,1.726v0.053c0.071,0.648,0.269,1.168,0.593,1.565c0.395,0.431,0.808,0.629,1.241,0.591
						l7.709-0.809c0.432-0.035,0.792-0.304,1.078-0.807c0.289-0.468,0.395-1.025,0.324-1.672V330.198 M442.838,327.232
						c-0.359-0.361-0.754-0.521-1.185-0.485l-7.656,0.808c-0.468,0.035-0.864,0.269-1.188,0.701
						c-0.251,0.503-0.342,1.078-0.27,1.726v0.053c0.074,0.647,0.27,1.168,0.594,1.563c0.396,0.432,0.828,0.629,1.294,0.593
						l7.657-0.808c0.43-0.037,0.789-0.305,1.078-0.808c0.289-0.468,0.396-1.026,0.324-1.672v-0.054
						C443.414,328.203,443.197,327.663,442.838,327.232 M456.964,327.501c-0.072-0.647-0.306-1.185-0.701-1.619
						c-0.323-0.358-0.72-0.519-1.185-0.484l-7.657,0.81c-0.468,0.035-0.862,0.269-1.185,0.7c-0.252,0.503-0.342,1.078-0.271,1.725
						v0.055c0.073,0.646,0.271,1.168,0.594,1.562c0.395,0.431,0.827,0.63,1.294,0.594l7.656-0.809
						c0.469-0.037,0.828-0.306,1.079-0.808c0.324-0.468,0.45-1.024,0.377-1.672V327.501 M406.339,334.294
						c0.359,0.431,0.754,0.629,1.186,0.594l7.709-0.808c0.468-0.036,0.845-0.306,1.132-0.809c0.289-0.468,0.396-1.025,0.324-1.672
						v-0.053c-0.073-0.648-0.287-1.188-0.647-1.618c-0.359-0.361-0.774-0.521-1.239-0.485l-7.711,0.808
						c-0.431,0.035-0.791,0.27-1.078,0.701c-0.251,0.503-0.342,1.079-0.27,1.726v0.052
						C405.817,333.379,406.015,333.899,406.339,334.294 M409.95,341.626c-0.107,0-0.216,0-0.323,0
						c-1.077,0.11-1.922,0.594-2.534,1.456c-0.719,0.828-1.025,1.779-0.917,2.858c0.107,1.078,0.594,1.958,1.456,2.643
						c0.792,0.719,1.726,1.024,2.804,0.917c0.107,0,0.216-0.019,0.323-0.055c0.755-0.143,1.421-0.485,1.996-1.024
						c-0.144-0.072-0.287-0.179-0.432-0.323c-0.862-0.685-1.348-1.563-1.455-2.643c-0.108-1.079,0.198-2.031,0.915-2.857
						c0.108-0.144,0.234-0.289,0.378-0.431C411.514,341.771,410.778,341.589,409.95,341.626z"/>
				</g>
			</g>
		</g>
		<g transform="matrix( -0.7071075439453125, -0.70709228515625, -0.70709228515625, 0.7071075439453125, 580.7,221.7) ">
			<g>
				<g id="Layer0_13_MEMBER_7_FILL">
					<path style="fill:#FFD7B1;" d="M64.618,251.502c-0.684-1.15-1.078-1.744-1.186-1.779c-0.432,0.035-1.06-0.108-1.887-0.432
						c-0.467-0.036-0.808-0.197-1.025-0.485c-0.215-0.288-0.376-0.485-0.484-0.593c-0.071-0.071-0.233-0.053-0.486,0.054
						c-0.144,0.072-0.234,0.252-0.269,0.54c-0.071,0.251-0.089,0.468-0.054,0.648c0.215,0.43,0.558,0.808,1.025,1.131
						c0.071,0.071,0.162,0.144,0.27,0.216c-0.396-0.001-0.918,0.053-1.564,0.161c-1.365,0.144-2.354,0.306-2.965,0.486
						c-0.179,0.143-0.288,0.304-0.323,0.485c0,0.07,0.017,0.197,0.054,0.377c0.18,0.395,0.736,0.844,1.671,1.348
						c-0.323,0.684-0.432,1.132-0.325,1.348c0.396,0.468,0.845,0.736,1.349,0.809c-0.108,0.719-0.163,1.114-0.163,1.186
						c1.007,0.396,1.744,0.808,2.211,1.239c0.575-0.178,1.294-0.447,2.157-0.808c0.754-0.289,1.294-0.486,1.617-0.594
						c0.035-0.717,0.197-1.277,0.485-1.671c0.576-0.395,1.726-0.539,3.45-0.431l-0.323-3.773c-0.394,0.071-0.88,0.142-1.455,0.215
						C65.571,251.287,64.976,251.395,64.618,251.502z"/>
				</g>
			</g>
		</g>
		<g transform="matrix( 1, 0, 0, 1, -58,72.4) ">
			<g>
				<g id="Layer0_13_MEMBER_8_FILL">
					
						<linearGradient id="SVGID_00000074423882997351599630000014863660147103084948_" gradientUnits="userSpaceOnUse" x1="412.1305" y1="276.8405" x2="386.0536" y2="251.0594">
						<stop  offset="0.2796" style="stop-color:#BDBDBD"/>
						<stop  offset="1" style="stop-color:#98A7A7"/>
					</linearGradient>
					<path style="fill:url(#SVGID_00000074423882997351599630000014863660147103084948_);" d="M413.898,281.906
						c0.516-0.385,0.983-0.745,1.401-1.077l-12.724-15.527c-2.244-3.204-4.366-6.458-6.363-9.759
						c-2.588-4.276-4.402-7.027-5.444-8.249c-0.36-0.107-0.756-0.251-1.188-0.432c-0.935-0.25-1.707-0.376-2.317-0.376
						c-0.396,0.323-0.826,0.754-1.294,1.294c-0.935,0.934-1.527,1.635-1.78,2.102c-0.287,0.395-0.483,0.898-0.592,1.509
						c0.973,1.545,2.788,4.169,5.444,7.871c2.686,3.742,4.825,6.763,6.416,9.059c1.457,2.088,6.742,7.283,15.852,15.581
						C411.944,283.38,412.807,282.716,413.898,281.906z"/>
				</g>
			</g>
		</g>
		<g transform="matrix( 1, 0, 0, 1, -74.05,33.85) ">
			<g>
				<g id="Layer0_13_MEMBER_9_FILL">
					
						<linearGradient id="SVGID_00000127014590671758390480000012721267762242359971_" gradientUnits="userSpaceOnUse" x1="363.3645" y1="379.7906" x2="388.5522" y2="354.8998">
						<stop  offset="0.2796" style="stop-color:#BDBDBD"/>
						<stop  offset="1" style="stop-color:#98A7A7"/>
					</linearGradient>
					<path style="fill:url(#SVGID_00000127014590671758390480000012721267762242359971_);" d="M374.685,364.181
						c-0.359-0.827-0.863-2.066-1.51-3.72c-0.61,0.072-1.169,0.089-1.671,0.054c-0.252,0-0.467,0-0.647,0
						c-1.078,0.468-1.923,0.826-2.533,1.078c0.61,1.365,1.76,4.44,3.45,9.22c1.69,4.528,2.983,7.8,3.882,9.813
						c0.396-0.181,0.611-0.288,0.647-0.324c0.144-0.468,0.27-0.897,0.377-1.293c-0.145-0.828-0.342-2.031-0.594-3.612l-1.239-10.783
						C374.811,364.542,374.757,364.397,374.685,364.181z"/>
				</g>
			</g>
		</g>
	</g>
</g>
</svg>
